<?xml version="1.0" encoding="utf-8"?><svg viewBox="0 0 64 64" xmlns="http://www.w3.org/2000/svg" xmlns:xlink="http://www.w3.org/1999/xlink"><style>:root>svg{display:none}:root>svg:target{display:block}</style><svg fill="none" viewBox="0 0 18 25" id="location" xmlns="http://www.w3.org/2000/svg"><path fill-rule="evenodd" clip-rule="evenodd" d="M8.373.012C7.259.14 6.62.278 5.904.547a9.143 9.143 0 0 0-4.586 3.787C.296 5.988-.176 8.133.06 10.052c.378 3.08 2.565 7.335 6.191 12.044.858 1.113 1.96 2.447 2.213 2.677.334.303.747.303 1.081 0 .253-.23 1.355-1.564 2.213-2.677 3.264-4.238 5.356-8.089 6.018-11.076.17-.769.225-1.27.224-2.068-.002-2.348-.939-4.59-2.623-6.283C13.984 1.271 12.343.424 10.415.108 9.958.033 8.702-.026 8.373.012Zm1.2 4.52a4.609 4.609 0 0 1 3.81 3.32c.129.464.178 1.399.1 1.905-.226 1.446-1.172 2.718-2.509 3.373-.789.386-1.593.531-2.42.437-.64-.073-.965-.166-1.519-.437-1.337-.655-2.283-1.927-2.508-3.373-.079-.506-.03-1.441.1-1.906.608-2.178 2.754-3.619 4.946-3.32Z" fill="#FFBE0B"/></svg><svg fill="none" viewBox="0 0 23 15" id="mail" xmlns="http://www.w3.org/2000/svg"><path fill-rule="evenodd" clip-rule="evenodd" d="M1.508.065c-.136.033-.267.08-.291.102-.05.046 9.723 9.128 9.932 9.23.156.078.546.078.702 0 .207-.102 9.981-9.184 9.933-9.23-.025-.022-.165-.07-.313-.105C21.233.005 20.128-.002 11.48 0 3.056.003 1.722.011 1.51.065ZM.082 1.3C.004 1.508 0 1.811 0 7.499s.004 5.99.082 6.199c.046.12.096.218.113.218s1.59-1.444 3.496-3.208l3.465-3.21L3.691 4.29C1.785 2.525.21 1.081.195 1.081c-.017 0-.067.099-.113.219ZM19.31 4.29l-3.465 3.209 3.465 3.209c1.906 1.764 3.48 3.208 3.496 3.208.017 0 .067-.098.113-.218.078-.208.082-.511.082-6.2 0-5.687-.004-5.99-.082-6.198-.046-.12-.096-.219-.113-.219s-1.59 1.444-3.496 3.209ZM4.615 11.603c-2.231 2.065-3.427 3.2-3.399 3.227.025.022.165.07.313.105.238.058 1.348.065 9.971.065s9.733-.007 9.971-.065c.148-.035.288-.083.313-.105.028-.026-1.17-1.163-3.409-3.236l-3.451-3.197-1.07.982c-.98.899-1.102.996-1.429 1.145l-.358.163h-1.134l-.358-.164c-.326-.149-.451-.249-1.419-1.135a41.814 41.814 0 0 0-1.08-.972c-.01 0-1.568 1.434-3.461 3.187Z" fill="#FFBE0B"/></svg><svg fill="none" viewBox="0 0 19 19" id="phone" xmlns="http://www.w3.org/2000/svg"><path fill-rule="evenodd" clip-rule="evenodd" d="M3.289.05c-.46.1-.55.17-1.753 1.37C.486 2.468.404 2.558.28 2.819c-.203.43-.254.663-.276 1.27-.022.613.028 1.019.214 1.724 1.119 4.25 6.136 9.838 10.938 12.185 1.424.696 2.499.998 3.559 1.002.649.002.977-.063 1.427-.285.29-.142.366-.21 1.411-1.25 1.17-1.167 1.24-1.255 1.388-1.75.077-.26.077-.747 0-1.008-.134-.448-.188-.513-1.669-1.998-.781-.784-1.521-1.496-1.644-1.583-.74-.525-1.689-.453-2.307.176-.188.19-.26.302-.389.601a3.483 3.483 0 0 1-.26.504c-.355.481-1.043.787-1.628.726-.872-.093-2.173-.878-3.276-1.978C6.435 9.824 5.65 8.292 5.84 7.399c.09-.415.382-.85.728-1.081.084-.057.262-.15.396-.206.387-.164.482-.218.662-.375.62-.54.756-1.551.304-2.268C7.797 3.26 5.227.666 4.914.426A2.148 2.148 0 0 0 4.04.035 1.693 1.693 0 0 0 3.29.05Z" fill="#FFBE0B"/></svg><svg fill="none" viewBox="0 0 64 64" id="swiper-left-arrow.svg" xmlns="http://www.w3.org/2000/svg"><path d="M27.99 59.998a9.933 9.933 0 0 1-7.07-2.93l-18-18a10.047 10.047 0 0 1 0-14.141l18-18a10 10 0 0 1 17.07 7.07 10.525 10.525 0 0 1-3.858 8H53.99a10 10 0 1 1 0 20H34.132c4.581 3.653 5.243 10.95.929 15.072a9.933 9.933 0 0 1-7.07 2.929ZM27.99 8a5.983 5.983 0 0 0-4.242 1.754l-18 18a6.028 6.028 0 0 0 0 8.485l18 18a6 6 0 0 0 8.485-8.484l-4.343-4.344a2.014 2.014 0 0 1 1.414-3.414H53.99a6 6 0 0 0 0-12H29.304a2.013 2.013 0 0 1-1.414-3.414c1.91-2.174 6.43-5.251 6.1-8.586a6.042 6.042 0 0 0-6-5.997Z" fill="#FFBE0B"/></svg><svg fill="none" viewBox="0 0 64 64" id="swiper-right-arrow" xmlns="http://www.w3.org/2000/svg"><path d="M36.01 59.998a9.933 9.933 0 0 0 7.07-2.93l18-18a10.047 10.047 0 0 0 0-14.141l-18-18a10 10 0 0 0-17.07 7.07 10.525 10.525 0 0 0 3.858 8H10.01a10 10 0 1 0 0 20h19.858c-4.581 3.653-5.243 10.95-.929 15.072a9.933 9.933 0 0 0 7.07 2.929ZM36.01 8a5.983 5.983 0 0 1 4.242 1.754l18 18a6.028 6.028 0 0 1 0 8.485l-18 18a6 6 0 0 1-8.485-8.484l4.343-4.344a2.014 2.014 0 0 0-1.414-3.414H10.01a6 6 0 0 1 0-12h24.686a2.013 2.013 0 0 0 1.414-3.414c-1.91-2.174-6.43-5.251-6.1-8.586a6.042 6.042 0 0 1 6-5.997Z" fill="#FFBE0B"/></svg></svg>