<svg width="18" height="25" viewBox="0 0 18 25" fill="none" xmlns="http://www.w3.org/2000/svg">
<path fill-rule="evenodd" clip-rule="evenodd" d="M8.37253 0.0117954C7.25888 0.139777 6.62075 0.278215 5.90423 0.547176C3.99568 1.26361 2.40271 2.57904 1.31809 4.33432C0.296058 5.98821 -0.175963 8.13252 0.0595368 10.0515C0.437659 13.1325 2.62474 17.3869 6.25123 22.0958C7.10891 23.2095 8.21147 24.5431 8.46419 24.7725C8.7983 25.0758 9.21105 25.0758 9.54516 24.7725C9.79787 24.5431 10.9004 23.2095 11.7581 22.0958C15.022 17.8577 17.1141 14.0073 17.7761 11.0201C17.9465 10.2514 18.0007 9.75 18 8.95196C17.9979 6.60402 17.0615 4.36145 15.3769 2.66949C13.9843 1.27084 12.3433 0.423642 10.4149 0.107769C9.9582 0.0329546 8.70202 -0.0260761 8.37253 0.0117954ZM9.57254 4.53126C11.3873 4.77862 12.89 6.08824 13.3822 7.85119C13.5119 8.31601 13.561 9.25053 13.4821 9.75674C13.257 11.2029 12.3112 12.4748 10.9741 13.1296C10.1854 13.5158 9.38134 13.6613 8.55488 13.5672C7.91388 13.4942 7.58861 13.4006 7.03529 13.1296C5.6981 12.4748 4.75231 11.2029 4.52722 9.75674C4.44839 9.25053 4.49746 8.31601 4.62719 7.85119C5.23527 5.67273 7.38064 4.23249 9.57254 4.53126Z" fill="#FFBE0B"/>
</svg>
