<svg width="23" height="15" viewBox="0 0 23 15" fill="none" xmlns="http://www.w3.org/2000/svg">
<path fill-rule="evenodd" clip-rule="evenodd" d="M1.50823 0.0646364C1.3723 0.098475 1.24114 0.144565 1.21684 0.167069C1.16755 0.212701 10.9399 9.2947 11.1489 9.39763C11.3053 9.47464 11.6947 9.47464 11.8511 9.39763C12.0585 9.29549 21.8325 0.212701 21.7836 0.167527C21.7594 0.145232 21.619 0.0978915 21.4715 0.0623443C21.2329 0.0048354 20.1275 -0.00204067 11.4793 0.000418041C3.05594 0.00279341 1.72234 0.0113781 1.50823 0.0646364ZM0.0823679 1.29995C0.00400586 1.50803 0 1.81095 0 7.49883C0 13.1867 0.00400586 13.4896 0.0823679 13.6977C0.127693 13.818 0.178374 13.9165 0.195027 13.9165C0.211636 13.9165 1.78477 12.4725 3.6908 10.7077L7.15633 7.49883L3.6908 4.29C1.78477 2.52514 0.211636 1.08117 0.195027 1.08117C0.178374 1.08117 0.127693 1.1796 0.0823679 1.29995ZM19.3092 4.29L15.8437 7.49883L19.3092 10.7077C21.2152 12.4725 22.7884 13.9165 22.805 13.9165C22.8216 13.9165 22.8723 13.818 22.9176 13.6977C22.996 13.4896 23 13.1867 23 7.49883C23 1.81095 22.996 1.50803 22.9176 1.29995C22.8723 1.1796 22.8216 1.08117 22.805 1.08117C22.7884 1.08117 21.2152 2.52514 19.3092 4.29ZM4.61458 11.6026C2.38363 13.6684 1.18803 14.8039 1.21643 14.8302C1.24056 14.8524 1.38099 14.8998 1.52853 14.9353C1.76695 14.9928 2.87685 15 11.5 15C20.1232 15 21.2331 14.9928 21.4715 14.9353C21.619 14.8998 21.7595 14.8524 21.7836 14.8301C21.8121 14.8038 20.6149 13.667 18.3755 11.5936L14.9236 8.39747L13.8532 9.37933C12.8737 10.2778 12.7524 10.375 12.425 10.524L12.0673 10.6868H11.5H10.9327L10.575 10.5234C10.2487 10.3744 10.1237 10.2744 9.15603 9.38784C8.57234 8.85313 8.08619 8.41564 8.07565 8.41564C8.06512 8.41564 6.50765 9.84978 4.61458 11.6026Z" fill="#FFBE0B"/>
</svg>
