<svg width="19" height="19" viewBox="0 0 19 19" fill="none" xmlns="http://www.w3.org/2000/svg">
<path fill-rule="evenodd" clip-rule="evenodd" d="M3.28896 0.0501696C2.82834 0.15009 2.7396 0.219391 1.53574 1.42003C0.485164 2.4678 0.403915 2.5584 0.280663 2.81903C0.0775773 3.24855 0.0268899 3.48191 0.00490046 4.08919C-0.0173126 4.70243 0.0329276 5.10761 0.218719 5.81296C1.33798 10.0623 6.35488 15.6512 11.1566 17.9978C12.5806 18.6937 13.6557 18.9964 14.7159 18.9999C15.3649 19.0021 15.6931 18.9366 16.1429 18.7154C16.4325 18.573 16.5087 18.5054 17.554 17.4641C18.7248 16.298 18.7948 16.2099 18.9419 15.7157C19.0194 15.4555 19.0194 14.9676 18.9419 14.7074C18.8085 14.2591 18.7541 14.1939 17.2735 12.7091C16.492 11.9254 15.752 11.2127 15.629 11.1255C14.8896 10.6006 13.9401 10.6734 13.3216 11.3023C13.1344 11.4927 13.0624 11.6041 12.9331 11.9035C12.8457 12.1056 12.729 12.3322 12.6736 12.407C12.3175 12.8882 11.6298 13.1945 11.0448 13.1326C10.1727 13.0403 8.87159 12.2548 7.7694 11.155C6.43509 9.82356 5.64809 8.29168 5.84003 7.39942C5.92941 6.98395 6.22194 6.54919 6.56792 6.31758C6.65237 6.26106 6.83049 6.1685 6.96373 6.11194C7.35081 5.94751 7.44604 5.89359 7.62572 5.73712C8.2459 5.19698 8.38163 4.18603 7.93022 3.46931C7.79735 3.2584 5.22742 0.665818 4.91387 0.426403C4.6639 0.235518 4.33581 0.0885176 4.04048 0.0350087C3.76069 -0.015676 3.57523 -0.011923 3.28896 0.0501696Z" fill="#FFBE0B"/>
</svg>
