<svg width="64" height="64" viewBox="0 0 64 64" fill="none" xmlns="http://www.w3.org/2000/svg">
<path d="M27.9902 59.9978C26.6765 60.0014 25.3751 59.7443 24.1614 59.2415C22.9477 58.7387 21.8457 58.0002 20.9194 57.0686L2.91943 39.0686C1.05536 37.1872 0.00957489 34.6459 0.00957489 31.9975C0.00957489 29.3491 1.05536 26.8078 2.91943 24.9265L20.9194 6.92696C22.318 5.52854 24.0997 4.57622 26.0395 4.19041C27.9792 3.80461 29.9898 4.00264 31.817 4.75947C33.6442 5.5163 35.2059 6.79795 36.3048 8.44234C37.4036 10.0867 37.9901 12.02 37.9902 13.9978C37.9691 15.5318 37.6128 17.0427 36.9464 18.4246C36.28 19.8065 35.3195 21.026 34.1323 21.9978H53.9902C56.6424 21.9978 59.1859 23.0513 61.0613 24.9267C62.9367 26.8021 63.9902 29.3456 63.9902 31.9978C63.9902 34.6499 62.9367 37.1935 61.0613 39.0688C59.1859 40.9442 56.6424 41.9978 53.9902 41.9978H34.1323C38.713 45.6499 39.3753 52.9477 35.061 57.069C34.1346 58.0005 33.0327 58.7389 31.819 59.2416C30.6053 59.7444 29.3039 60.0014 27.9902 59.9978ZM27.9902 8.00069C27.2024 7.99934 26.422 8.15363 25.6939 8.4547C24.9658 8.75577 24.3044 9.19769 23.7476 9.75508L5.74755 27.7551C4.62925 28.8839 4.00186 30.4086 4.00186 31.9975C4.00186 33.5865 4.62925 35.1112 5.74755 36.2399L23.7476 54.2404C24.873 55.3645 26.3987 55.9957 27.9893 55.9952C29.5799 55.9948 31.1052 55.3627 32.23 54.238C33.3548 53.1133 33.9869 51.588 33.9875 49.9974C33.988 48.4068 33.3569 46.881 32.2329 45.7556L27.8896 41.4118C27.6162 41.1298 27.4312 40.7739 27.3575 40.388C27.2839 40.0022 27.3247 39.6032 27.475 39.2402C27.6253 38.8773 27.8786 38.5662 28.2035 38.3455C28.5285 38.1247 28.9109 38.0038 29.3037 37.9978H53.9902C55.5815 37.9978 57.1077 37.3656 58.2329 36.2404C59.3581 35.1152 59.9902 33.5891 59.9902 31.9978C59.9902 30.4065 59.3581 28.8803 58.2329 27.7551C57.1077 26.6299 55.5815 25.9978 53.9902 25.9978H29.3037C28.9109 25.9917 28.5285 25.8708 28.2035 25.65C27.8786 25.4293 27.6254 25.1182 27.475 24.7553C27.3247 24.3924 27.2839 23.9934 27.3575 23.6075C27.4312 23.2216 27.6162 22.8657 27.8896 22.5837C29.8003 20.4099 34.3195 17.3328 33.9902 13.9978C33.9785 12.4104 33.3425 10.8914 32.2197 9.76913C31.097 8.64692 29.5776 8.01166 27.9902 8.00069Z" fill="#FFBE0B"/>
</svg>
