<svg width="64" height="64" viewBox="0 0 64 64" fill="none" xmlns="http://www.w3.org/2000/svg">
<path d="M36.0098 59.9978C37.3235 60.0014 38.6249 59.7443 39.8386 59.2415C41.0523 58.7387 42.1543 58.0002 43.0806 57.0686L61.0806 39.0686C62.9446 37.1872 63.9904 34.6459 63.9904 31.9975C63.9904 29.3491 62.9446 26.8078 61.0806 24.9265L43.0806 6.92696C41.682 5.52854 39.9003 4.57622 37.9605 4.19041C36.0208 3.80461 34.0102 4.00264 32.183 4.75947C30.3558 5.5163 28.7941 6.79794 27.6952 8.44234C26.5964 10.0867 26.0099 12.02 26.0098 13.9978C26.0309 15.5318 26.3872 17.0427 27.0536 18.4246C27.72 19.8065 28.6805 21.026 29.8677 21.9978H10.0098C7.3576 21.9978 4.81406 23.0513 2.9387 24.9267C1.06333 26.8021 0.00976563 29.3456 0.00976562 31.9978C0.00976563 34.6499 1.06333 37.1935 2.9387 39.0688C4.81406 40.9442 7.3576 41.9978 10.0098 41.9978H29.8677C25.287 45.6499 24.6247 52.9477 28.939 57.069C29.8654 58.0005 30.9673 58.7389 32.181 59.2416C33.3947 59.7444 34.6961 60.0014 36.0098 59.9978ZM36.0098 8.00069C36.7976 7.99934 37.578 8.15363 38.3061 8.4547C39.0342 8.75577 39.6956 9.19769 40.2524 9.75508L58.2524 27.7551C59.3708 28.8839 59.9981 30.4086 59.9981 31.9975C59.9981 33.5865 59.3708 35.1112 58.2524 36.2399L40.2524 54.2404C39.127 55.3645 37.6013 55.9957 36.0107 55.9952C34.4201 55.9948 32.8948 55.3627 31.77 54.238C30.6452 53.1133 30.0131 51.588 30.0125 49.9974C30.012 48.4068 30.6431 46.881 31.7671 45.7556L36.1104 41.4118C36.3838 41.1298 36.5688 40.7739 36.6425 40.388C36.7161 40.0022 36.6753 39.6032 36.525 39.2402C36.3747 38.8773 36.1214 38.5662 35.7965 38.3455C35.4715 38.1247 35.0891 38.0038 34.6963 37.9978H10.0098C8.41847 37.9978 6.89234 37.3656 5.76713 36.2404C4.64191 35.1152 4.00977 33.5891 4.00977 31.9978C4.00977 30.4065 4.64191 28.8803 5.76713 27.7551C6.89234 26.6299 8.41847 25.9978 10.0098 25.9978H34.6963C35.0891 25.9917 35.4715 25.8708 35.7965 25.65C36.1214 25.4293 36.3746 25.1182 36.525 24.7553C36.6753 24.3924 36.7161 23.9934 36.6425 23.6075C36.5688 23.2216 36.3838 22.8657 36.1104 22.5837C34.1997 20.4099 29.6805 17.3328 30.0098 13.9978C30.0215 12.4104 30.6575 10.8914 31.7803 9.76913C32.903 8.64692 34.4224 8.01166 36.0098 8.00069Z" fill="#FFBE0B"/>
</svg>
